<?xml version="1.0" encoding="UTF-8"?>
<!DOCTYPE svg
PUBLIC "-//W3C//DTD SVG 1.1//EN"
       "http://www.w3.org/Graphics/SVG/1.1/DTD/svg11.dtd">
<svg viewBox="69 32 1457 778" width="1388px" height="746px" xmlns="http://www.w3.org/2000/svg" version="1.1">
   <line x1="468" y1="619" x2="458" y2="619" style="stroke:#333;stroke-width:1;"/>
   <line x1="220" y1="592" x2="210" y2="592" style="stroke:#333;stroke-width:1;"/>
   <line x1="458" y1="619" x2="220" y2="592" style="stroke:#333;stroke-width:1;"/>
   <line x1="460.5" y1="619" x2="464.03553390593" y2="622.53553390593" style="stroke:#333;stroke-width:2;"/>
   <line x1="460.5" y1="619" x2="464.03553390593" y2="615.46446609407" style="stroke:#333;stroke-width:2;"/>
   <line x1="215" y1="592" x2="218.53553390593" y2="595.53553390593" style="stroke:#333;stroke-width:2;"/>
   <line x1="215" y1="592" x2="218.53553390593" y2="588.46446609407" style="stroke:#333;stroke-width:2;"/>
   <rect width="95" height="20" x="467" y="236" style="fill:#007;stroke:black;"/>
   <text width="95" height="20" x="472" y="250" style="fill:#fff;" font-family="Arial" font-size="16px"> abouts</text>
   <rect width="95" height="20" x="467" y="256" style="fill:#aea;stroke:black;"/>
   <text width="95" height="20" x="472" y="270" style="fill:black;" font-family="Arial" font-size="16px">id</text>
   <rect width="95" height="20" x="467" y="276" style="fill:none;stroke:black;"/>
   <text width="95" height="20" x="472" y="290" style="fill:black;" font-family="Arial" font-size="16px">photo_url</text>
   <rect width="95" height="20" x="467" y="296" style="fill:none;stroke:black;"/>
   <text width="95" height="20" x="472" y="310" style="fill:black;" font-family="Arial" font-size="16px">photo_name</text>
   <rect width="95" height="20" x="467" y="316" style="fill:none;stroke:black;"/>
   <text width="95" height="20" x="472" y="330" style="fill:black;" font-family="Arial" font-size="16px">bio</text>
   <rect width="95" height="20" x="467" y="336" style="fill:none;stroke:black;"/>
   <text width="95" height="20" x="472" y="350" style="fill:black;" font-family="Arial" font-size="16px">activate</text>
   <rect width="95" height="20" x="467" y="356" style="fill:none;stroke:black;"/>
   <text width="95" height="20" x="472" y="370" style="fill:black;" font-family="Arial" font-size="16px">created_at</text>
   <rect width="95" height="20" x="467" y="376" style="fill:none;stroke:black;"/>
   <text width="95" height="20" x="472" y="390" style="fill:black;" font-family="Arial" font-size="16px">updated_at</text>
   <rect width="80" height="20" x="828" y="683" style="fill:#007;stroke:black;"/>
   <text width="80" height="20" x="833" y="697" style="fill:#fff;" font-family="Arial" font-size="16px"> cache</text>
   <rect width="80" height="20" x="828" y="703" style="fill:none;stroke:black;"/>
   <text width="80" height="20" x="833" y="717" style="fill:black;" font-family="Arial" font-size="16px">key</text>
   <rect width="80" height="20" x="828" y="723" style="fill:none;stroke:black;"/>
   <text width="80" height="20" x="833" y="737" style="fill:black;" font-family="Arial" font-size="16px">value</text>
   <rect width="80" height="20" x="828" y="743" style="fill:none;stroke:black;"/>
   <text width="80" height="20" x="833" y="757" style="fill:black;" font-family="Arial" font-size="16px">expiration</text>
   <rect width="94" height="20" x="1077" y="682" style="fill:#007;stroke:black;"/>
   <text width="94" height="20" x="1082" y="696" style="fill:#fff;" font-family="Arial" font-size="16px"> cache_locks</text>
   <rect width="94" height="20" x="1077" y="702" style="fill:none;stroke:black;"/>
   <text width="94" height="20" x="1082" y="716" style="fill:black;" font-family="Arial" font-size="16px">key</text>
   <rect width="94" height="20" x="1077" y="722" style="fill:none;stroke:black;"/>
   <text width="94" height="20" x="1082" y="736" style="fill:black;" font-family="Arial" font-size="16px">owner</text>
   <rect width="94" height="20" x="1077" y="742" style="fill:none;stroke:black;"/>
   <text width="94" height="20" x="1082" y="756" style="fill:black;" font-family="Arial" font-size="16px">expiration</text>
   <rect width="87" height="20" x="1355" y="56" style="fill:#007;stroke:black;"/>
   <text width="87" height="20" x="1360" y="70" style="fill:#fff;" font-family="Arial" font-size="16px"> failed_jobs</text>
   <rect width="87" height="20" x="1355" y="76" style="fill:#aea;stroke:black;"/>
   <text width="87" height="20" x="1360" y="90" style="fill:black;" font-family="Arial" font-size="16px">id</text>
   <rect width="87" height="20" x="1355" y="96" style="fill:none;stroke:black;"/>
   <text width="87" height="20" x="1360" y="110" style="fill:black;" font-family="Arial" font-size="16px">uuid</text>
   <rect width="87" height="20" x="1355" y="116" style="fill:none;stroke:black;"/>
   <text width="87" height="20" x="1360" y="130" style="fill:black;" font-family="Arial" font-size="16px">connection</text>
   <rect width="87" height="20" x="1355" y="136" style="fill:none;stroke:black;"/>
   <text width="87" height="20" x="1360" y="150" style="fill:black;" font-family="Arial" font-size="16px">queue</text>
   <rect width="87" height="20" x="1355" y="156" style="fill:none;stroke:black;"/>
   <text width="87" height="20" x="1360" y="170" style="fill:black;" font-family="Arial" font-size="16px">payload</text>
   <rect width="87" height="20" x="1355" y="176" style="fill:none;stroke:black;"/>
   <text width="87" height="20" x="1360" y="190" style="fill:black;" font-family="Arial" font-size="16px">exception</text>
   <rect width="87" height="20" x="1355" y="196" style="fill:none;stroke:black;"/>
   <text width="87" height="20" x="1360" y="210" style="fill:black;" font-family="Arial" font-size="16px">failed_at</text>
   <rect width="92" height="20" x="801" y="90" style="fill:#007;stroke:black;"/>
   <text width="92" height="20" x="806" y="104" style="fill:#fff;" font-family="Arial" font-size="16px"> jobs</text>
   <rect width="92" height="20" x="801" y="110" style="fill:#aea;stroke:black;"/>
   <text width="92" height="20" x="806" y="124" style="fill:black;" font-family="Arial" font-size="16px">id</text>
   <rect width="92" height="20" x="801" y="130" style="fill:none;stroke:black;"/>
   <text width="92" height="20" x="806" y="144" style="fill:black;" font-family="Arial" font-size="16px">queue</text>
   <rect width="92" height="20" x="801" y="150" style="fill:none;stroke:black;"/>
   <text width="92" height="20" x="806" y="164" style="fill:black;" font-family="Arial" font-size="16px">payload</text>
   <rect width="92" height="20" x="801" y="170" style="fill:none;stroke:black;"/>
   <text width="92" height="20" x="806" y="184" style="fill:black;" font-family="Arial" font-size="16px">attempts</text>
   <rect width="92" height="20" x="801" y="190" style="fill:none;stroke:black;"/>
   <text width="92" height="20" x="806" y="204" style="fill:black;" font-family="Arial" font-size="16px">reserved_at</text>
   <rect width="92" height="20" x="801" y="210" style="fill:none;stroke:black;"/>
   <text width="92" height="20" x="806" y="224" style="fill:black;" font-family="Arial" font-size="16px">available_at</text>
   <rect width="92" height="20" x="801" y="230" style="fill:none;stroke:black;"/>
   <text width="92" height="20" x="806" y="244" style="fill:black;" font-family="Arial" font-size="16px">created_at</text>
   <rect width="101" height="20" x="1110" y="49" style="fill:#007;stroke:black;"/>
   <text width="101" height="20" x="1115" y="63" style="fill:#fff;" font-family="Arial" font-size="16px"> job_batches</text>
   <rect width="101" height="20" x="1110" y="69" style="fill:#aea;stroke:black;"/>
   <text width="101" height="20" x="1115" y="83" style="fill:black;" font-family="Arial" font-size="16px">id</text>
   <rect width="101" height="20" x="1110" y="89" style="fill:none;stroke:black;"/>
   <text width="101" height="20" x="1115" y="103" style="fill:black;" font-family="Arial" font-size="16px">name</text>
   <rect width="101" height="20" x="1110" y="109" style="fill:none;stroke:black;"/>
   <text width="101" height="20" x="1115" y="123" style="fill:black;" font-family="Arial" font-size="16px">total_jobs</text>
   <rect width="101" height="20" x="1110" y="129" style="fill:none;stroke:black;"/>
   <text width="101" height="20" x="1115" y="143" style="fill:black;" font-family="Arial" font-size="16px">pending_jobs</text>
   <rect width="101" height="20" x="1110" y="149" style="fill:none;stroke:black;"/>
   <text width="101" height="20" x="1115" y="163" style="fill:black;" font-family="Arial" font-size="16px">failed_jobs</text>
   <rect width="101" height="20" x="1110" y="169" style="fill:none;stroke:black;"/>
   <text width="101" height="20" x="1115" y="183" style="fill:black;" font-family="Arial" font-size="16px">failed_job_ids</text>
   <rect width="101" height="20" x="1110" y="189" style="fill:none;stroke:black;"/>
   <text width="101" height="20" x="1115" y="203" style="fill:black;" font-family="Arial" font-size="16px">options</text>
   <rect width="101" height="20" x="1110" y="209" style="fill:none;stroke:black;"/>
   <text width="101" height="20" x="1115" y="223" style="fill:black;" font-family="Arial" font-size="16px">cancelled_at</text>
   <rect width="101" height="20" x="1110" y="229" style="fill:none;stroke:black;"/>
   <text width="101" height="20" x="1115" y="243" style="fill:black;" font-family="Arial" font-size="16px">created_at</text>
   <rect width="101" height="20" x="1110" y="249" style="fill:none;stroke:black;"/>
   <text width="101" height="20" x="1115" y="263" style="fill:black;" font-family="Arial" font-size="16px">finished_at</text>
   <rect width="83" height="20" x="1084" y="507" style="fill:#007;stroke:black;"/>
   <text width="83" height="20" x="1089" y="521" style="fill:#fff;" font-family="Arial" font-size="16px"> migrations</text>
   <rect width="83" height="20" x="1084" y="527" style="fill:#aea;stroke:black;"/>
   <text width="83" height="20" x="1089" y="541" style="fill:black;" font-family="Arial" font-size="16px">id</text>
   <rect width="83" height="20" x="1084" y="547" style="fill:none;stroke:black;"/>
   <text width="83" height="20" x="1089" y="561" style="fill:black;" font-family="Arial" font-size="16px">migration</text>
   <rect width="83" height="20" x="1084" y="567" style="fill:none;stroke:black;"/>
   <text width="83" height="20" x="1089" y="581" style="fill:black;" font-family="Arial" font-size="16px">batch</text>
   <rect width="172" height="20" x="461" y="47" style="fill:#007;stroke:black;"/>
   <text width="172" height="20" x="466" y="61" style="fill:#fff;" font-family="Arial" font-size="16px"> password_reset_tokens</text>
   <rect width="172" height="20" x="461" y="67" style="fill:none;stroke:black;"/>
   <text width="172" height="20" x="466" y="81" style="fill:black;" font-family="Arial" font-size="16px">email</text>
   <rect width="172" height="20" x="461" y="87" style="fill:none;stroke:black;"/>
   <text width="172" height="20" x="466" y="101" style="fill:black;" font-family="Arial" font-size="16px">token</text>
   <rect width="172" height="20" x="461" y="107" style="fill:none;stroke:black;"/>
   <text width="172" height="20" x="466" y="121" style="fill:black;" font-family="Arial" font-size="16px">created_at</text>
   <rect width="88" height="20" x="122" y="562" style="fill:#007;stroke:black;"/>
   <text width="88" height="20" x="127" y="576" style="fill:#fff;" font-family="Arial" font-size="16px"> projects</text>
   <rect width="88" height="20" x="122" y="582" style="fill:#aea;stroke:black;"/>
   <text width="88" height="20" x="127" y="596" style="fill:black;" font-family="Arial" font-size="16px">id</text>
   <rect width="88" height="20" x="122" y="602" style="fill:none;stroke:black;"/>
   <text width="88" height="20" x="127" y="616" style="fill:black;" font-family="Arial" font-size="16px">title</text>
   <rect width="88" height="20" x="122" y="622" style="fill:none;stroke:black;"/>
   <text width="88" height="20" x="127" y="636" style="fill:black;" font-family="Arial" font-size="16px">description</text>
   <rect width="88" height="20" x="122" y="642" style="fill:none;stroke:black;"/>
   <text width="88" height="20" x="127" y="656" style="fill:black;" font-family="Arial" font-size="16px">link</text>
   <rect width="88" height="20" x="122" y="662" style="fill:none;stroke:black;"/>
   <text width="88" height="20" x="127" y="676" style="fill:black;" font-family="Arial" font-size="16px">github_link</text>
   <rect width="88" height="20" x="122" y="682" style="fill:none;stroke:black;"/>
   <text width="88" height="20" x="127" y="696" style="fill:black;" font-family="Arial" font-size="16px">tags</text>
   <rect width="88" height="20" x="122" y="702" style="fill:none;stroke:black;"/>
   <text width="88" height="20" x="127" y="716" style="fill:black;" font-family="Arial" font-size="16px">created_at</text>
   <rect width="88" height="20" x="122" y="722" style="fill:none;stroke:black;"/>
   <text width="88" height="20" x="127" y="736" style="fill:black;" font-family="Arial" font-size="16px">updated_at</text>
   <rect width="113" height="20" x="468" y="569" style="fill:#007;stroke:black;"/>
   <text width="113" height="20" x="473" y="583" style="fill:#fff;" font-family="Arial" font-size="16px"> project_photos</text>
   <rect width="113" height="20" x="468" y="589" style="fill:#aea;stroke:black;"/>
   <text width="113" height="20" x="473" y="603" style="fill:black;" font-family="Arial" font-size="16px">id</text>
   <rect width="113" height="20" x="468" y="609" style="fill:none;stroke:black;"/>
   <text width="113" height="20" x="473" y="623" style="fill:black;" font-family="Arial" font-size="16px">project_id</text>
   <rect width="113" height="20" x="468" y="629" style="fill:none;stroke:black;"/>
   <text width="113" height="20" x="473" y="643" style="fill:black;" font-family="Arial" font-size="16px">image_url</text>
   <rect width="113" height="20" x="468" y="649" style="fill:none;stroke:black;"/>
   <text width="113" height="20" x="473" y="663" style="fill:black;" font-family="Arial" font-size="16px">image_name</text>
   <rect width="113" height="20" x="468" y="669" style="fill:none;stroke:black;"/>
   <text width="113" height="20" x="473" y="683" style="fill:black;" font-family="Arial" font-size="16px">created_at</text>
   <rect width="113" height="20" x="468" y="689" style="fill:none;stroke:black;"/>
   <text width="113" height="20" x="473" y="703" style="fill:black;" font-family="Arial" font-size="16px">updated_at</text>
   <rect width="89" height="20" x="812" y="397" style="fill:#007;stroke:black;"/>
   <text width="89" height="20" x="817" y="411" style="fill:#fff;" font-family="Arial" font-size="16px"> sessions</text>
   <rect width="89" height="20" x="812" y="417" style="fill:none;stroke:black;"/>
   <text width="89" height="20" x="817" y="431" style="fill:black;" font-family="Arial" font-size="16px">id</text>
   <rect width="89" height="20" x="812" y="437" style="fill:none;stroke:black;"/>
   <text width="89" height="20" x="817" y="451" style="fill:black;" font-family="Arial" font-size="16px">user_id</text>
   <rect width="89" height="20" x="812" y="457" style="fill:none;stroke:black;"/>
   <text width="89" height="20" x="817" y="471" style="fill:black;" font-family="Arial" font-size="16px">ip_address</text>
   <rect width="89" height="20" x="812" y="477" style="fill:none;stroke:black;"/>
   <text width="89" height="20" x="817" y="491" style="fill:black;" font-family="Arial" font-size="16px">user_agent</text>
   <rect width="89" height="20" x="812" y="497" style="fill:none;stroke:black;"/>
   <text width="89" height="20" x="817" y="511" style="fill:black;" font-family="Arial" font-size="16px">payload</text>
   <rect width="89" height="20" x="812" y="517" style="fill:none;stroke:black;"/>
   <text width="89" height="20" x="817" y="531" style="fill:black;" font-family="Arial" font-size="16px">last_activity</text>
   <rect width="194" height="20" x="84" y="79" style="fill:#007;stroke:black;"/>
   <text width="194" height="20" x="89" y="93" style="fill:#fff;" font-family="Arial" font-size="16px"> users</text>
   <rect width="194" height="20" x="84" y="99" style="fill:#aea;stroke:black;"/>
   <text width="194" height="20" x="89" y="113" style="fill:black;" font-family="Arial" font-size="16px">id</text>
   <rect width="194" height="20" x="84" y="119" style="fill:none;stroke:black;"/>
   <text width="194" height="20" x="89" y="133" style="fill:black;" font-family="Arial" font-size="16px">name</text>
   <rect width="194" height="20" x="84" y="139" style="fill:none;stroke:black;"/>
   <text width="194" height="20" x="89" y="153" style="fill:black;" font-family="Arial" font-size="16px">email</text>
   <rect width="194" height="20" x="84" y="159" style="fill:none;stroke:black;"/>
   <text width="194" height="20" x="89" y="173" style="fill:black;" font-family="Arial" font-size="16px">email_verified_at</text>
   <rect width="194" height="20" x="84" y="179" style="fill:none;stroke:black;"/>
   <text width="194" height="20" x="89" y="193" style="fill:black;" font-family="Arial" font-size="16px">password</text>
   <rect width="194" height="20" x="84" y="199" style="fill:none;stroke:black;"/>
   <text width="194" height="20" x="89" y="213" style="fill:black;" font-family="Arial" font-size="16px">two_factor_secret</text>
   <rect width="194" height="20" x="84" y="219" style="fill:none;stroke:black;"/>
   <text width="194" height="20" x="89" y="233" style="fill:black;" font-family="Arial" font-size="16px">two_factor_recovery_codes</text>
   <rect width="194" height="20" x="84" y="239" style="fill:none;stroke:black;"/>
   <text width="194" height="20" x="89" y="253" style="fill:black;" font-family="Arial" font-size="16px">two_factor_confirmed_at</text>
   <rect width="194" height="20" x="84" y="259" style="fill:none;stroke:black;"/>
   <text width="194" height="20" x="89" y="273" style="fill:black;" font-family="Arial" font-size="16px">remember_token</text>
   <rect width="194" height="20" x="84" y="279" style="fill:none;stroke:black;"/>
   <text width="194" height="20" x="89" y="293" style="fill:black;" font-family="Arial" font-size="16px">created_at</text>
   <rect width="194" height="20" x="84" y="299" style="fill:none;stroke:black;"/>
   <text width="194" height="20" x="89" y="313" style="fill:black;" font-family="Arial" font-size="16px">updated_at</text>
</svg>
